<svg id="Capa_1" enable-background="new 0 0 512 512" height="512" viewBox="0 0 512 512" width="512" xmlns="http://www.w3.org/2000/svg"><g><g><path d="m224.944 7.5h-121.576c-2.111 0-3.822 1.711-3.822 3.822v30.576c0 2.111 1.711 3.822 3.822 3.822h121.576c2.111 0 3.822-1.711 3.822-3.822v-30.576c0-2.111-1.711-3.822-3.822-3.822z" fill="#c6c1c8"/></g><g><path d="m224.944 7.5h-36.178v7.583c0 8.636-7.001 15.637-15.637 15.637h-73.583v11.178c0 2.111 1.711 3.822 3.822 3.822h121.576c2.111 0 3.822-1.711 3.822-3.822v-30.576c0-2.111-1.711-3.822-3.822-3.822z" fill="#afaab4"/></g><g><path d="m60.625 479.846c0 13.616 11.038 24.654 24.654 24.654h157.754c13.616 0 24.654-11.038 24.654-24.654v-5.346h-207.062z" fill="#daf1f4"/></g><g><path d="m60.625 233.4h207.062v241.1h-207.062z" fill="#fff9e2"/></g><g><path d="m267.687 213.066c0-23.749-5.83-47.134-16.977-68.103l-16.845-31.688c-6.837-12.862-10.413-27.205-10.413-41.771v-25.784h-118.592v25.783c0 14.566-3.576 28.909-10.413 41.771l-16.845 31.688c-11.147 20.97-16.977 44.355-16.977 68.103v20.335h207.062z" fill="#ecf9f9"/></g><g><path d="m163.54 474.5c-13.971 6.42-29.517 10-45.9 10h-56.576c2.176 11.391 12.19 20 24.215 20h157.754c13.616 0 24.653-11.038 24.653-24.654v-5.346z" fill="#b9e4ef"/></g><g><path d="m267.687 213.066c0-23.749-5.83-47.134-16.977-68.103l-16.845-31.688c-6.837-12.862-10.413-27.205-10.413-41.771v-25.784h-118.592v25.783c0 14.566-3.576 28.909-10.413 41.771l-16.845 31.688c-11.147 20.97-16.977 44.355-16.977 68.103v20.335h207.062z" fill="#ecf9f9"/></g><g><path d="m227.687 233.4v141.054c0 44.394-26.288 82.649-64.146 100.046h104.146v-241.1z" fill="#fbf4c6"/></g><g><path d="m250.71 144.962-16.845-31.688c-6.837-12.862-10.413-27.205-10.413-41.771v-25.783h-40v5.783c0 14.566 3.576 28.909 10.413 41.771l16.845 31.688c11.148 20.97 16.977 44.355 16.977 68.103v40.335h40v-20.334c0-23.749-5.83-47.134-16.977-68.104z" fill="#daf1f4"/></g><g><path d="m305.832 472.846.945 27.76c.074 2.172 1.856 3.894 4.029 3.894h127.588c2.173 0 3.955-1.722 4.029-3.894l.945-27.76z" fill="#daf1f4"/></g><g><path d="m451.372 237.817c.078-2.279-1.749-4.169-4.029-4.169h-145.485c-2.28 0-4.107 1.89-4.029 4.169l2.676 78.595h148.191z" fill="#ecf9f9"/></g><g><path d="m300.505 316.412 5.327 156.434h137.537l5.327-156.434z" fill="#fff9e2"/></g><g><path d="m395.679 472.846c-6.02 7.137-15.027 11.654-25.06 11.654h-64.39l.548 16.106c.074 2.172 1.856 3.894 4.029 3.894h127.588c2.173 0 3.955-1.722 4.029-3.894l.945-27.76z" fill="#b9e4ef"/></g><g><path d="m408.015 316.412-4.646 136.434c-.26 7.627-3.111 14.571-7.69 20h47.69l5.327-156.434z" fill="#fbf4c6"/></g><g><path d="m447.343 233.648h-36.51l-2.137 62.764-.681 20h40.681l2.676-78.595c.078-2.279-1.748-4.169-4.029-4.169z" fill="#daf1f4"/></g><path d="m86.165 199.513c4.062.725 7.969-1.982 8.695-6.073 2.071-11.661 5.919-22.838 11.439-33.222l16.845-31.688c3.466-6.519 6.355-13.42 8.587-20.511 1.243-3.951-.952-8.162-4.903-9.406-3.951-1.241-8.162.953-9.406 4.903-1.956 6.216-4.487 12.263-7.523 17.973l-16.846 31.688c-6.256 11.77-10.618 24.434-12.963 37.641-.723 4.078 1.996 7.971 6.075 8.695z"/><path d="m85.279 512h157.754c17.729 0 32.153-14.424 32.153-32.154v-266.781c0-24.884-6.174-49.651-17.854-71.624l-16.845-31.688c-5.129-9.648-8.269-20.305-9.224-31.176 2.914-1.029 5.003-3.807 5.003-7.074 0-3.382-2.238-6.24-5.314-7.176v-12.837c3.189-2.005 5.314-5.555 5.314-9.592v-30.576c0-6.243-5.079-11.322-11.322-11.322h-121.576c-6.243 0-11.322 5.079-11.322 11.322v30.576c0 4.037 2.125 7.587 5.314 9.592v12.837c-3.076.936-5.314 3.794-5.314 7.176 0 3.267 2.089 6.045 5.003 7.074-.955 10.871-4.095 21.529-9.224 31.176l-16.845 31.689c-11.681 21.973-17.855 46.74-17.855 71.624v266.781c0 17.729 14.424 32.153 32.154 32.153zm157.754-15h-157.754c-8.729 0-15.956-6.554-17.019-15h191.792c-1.063 8.446-8.29 15-17.019 15zm-135.987-482h114.22v23.22h-17.795c-4.142 0-7.5 3.358-7.5 7.5s3.358 7.5 7.5 7.5h12.481v10.784h-103.592v-10.784h56.11c4.142 0 7.5-3.358 7.5-7.5s-3.358-7.5-7.5-7.5h-61.425v-23.22zm-22.821 133.483 16.845-31.688c6.21-11.683 9.959-24.615 10.995-37.791h104.182c1.036 13.176 4.784 26.108 10.995 37.791l16.845 31.688c10.533 19.812 16.1 42.145 16.1 64.583v12.834h-145.641c-4.142 0-7.5 3.358-7.5 7.5s3.358 7.5 7.5 7.5h145.641v226.1h-192.062v-226.1h11.421c4.142 0 7.5-3.358 7.5-7.5s-3.358-7.5-7.5-7.5h-11.421v-12.834c0-22.438 5.567-44.77 16.1-64.583z"/><path d="m299.282 500.86c.212 6.247 5.274 11.14 11.525 11.14h127.588c6.25 0 11.313-4.893 11.525-11.139 1.446-42.473 8.317-244.247 8.949-262.789.222-6.507-5.009-11.924-11.525-11.924h-145.486c-6.511 0-11.747 5.412-11.525 11.924 1.502 44.103 4.662 136.909 8.949 262.788zm14.877-3.86-.567-16.654h122.018l-.568 16.654zm129.596-255.852-2.307 67.764h-12.142c-4.142 0-7.5 3.358-7.5 7.5s3.358 7.5 7.5 7.5h11.631l-4.816 141.434h-123.04l-4.816-141.434h86.041c4.142 0 7.5-3.358 7.5-7.5s-3.358-7.5-7.5-7.5h-86.552l-2.307-67.764z"/><path d="m316.057 258.904 1.116 32.763c.138 4.053 3.467 7.245 7.491 7.245 4.254 0 7.644-3.522 7.5-7.755l-1.116-32.763c-.141-4.14-3.615-7.374-7.751-7.24-4.14.14-7.381 3.61-7.24 7.75z"/></g></svg>