<svg width="38" height="27" viewBox="0 0 38 27" fill="none" xmlns="http://www.w3.org/2000/svg">
<path d="M32.9285 4.96231C28.8697 1.05983 24.5694 -0.591894 20.4549 0.188601C19.5937 0.356531 18.7553 0.621487 17.9565 0.978167C17.7099 1.10841 17.5238 1.32599 17.4364 1.58621L17.5478 1.64066C17.3211 3.06621 17.2433 4.5106 17.3156 5.95154C17.2765 4.69149 17.3573 3.43062 17.5571 2.1852C17.5571 2.1852 17.6593 1.56806 18.0122 1.41378C22.1082 -0.40133 27.2164 0.152277 32.5848 5.27087C37.7674 10.217 38.4919 17.1145 36.2257 18.5393L35.9192 18.6936L35.9656 18.7934C35.7031 18.8643 35.4364 18.9189 35.1669 18.9568C33.1999 19.1121 31.2296 18.6987 29.5013 17.7679L29.3434 17.7044L29.0369 17.5591L28.7304 17.4139C26.9949 16.4677 25.1529 15.7215 23.2413 15.1904C22.5499 15.0721 21.8428 15.0721 21.1515 15.1904L20.2227 15.3538V15.4083C20.2692 15.4809 20.3063 15.5535 20.3435 15.6261C20.7987 16.4596 20.9681 17.414 20.8264 18.3487C20.7813 18.5963 20.7129 18.8394 20.6221 19.0748C20.6041 19.1131 20.5886 19.1525 20.5757 19.1928C20.4859 19.4044 20.3771 19.6079 20.2506 19.8008C18.7459 22.2058 8.97518 25.1826 7.33123 25.6908C5.5966 26.1623 3.79992 26.3795 2 26.3352C8.0278 29.0579 27.8202 22.705 33.7922 20.1185C34.6197 19.9029 35.4067 19.5598 36.1235 19.102C36.3144 19.0595 36.4987 18.9923 36.6715 18.9023C37.0748 18.5882 37.4003 18.1893 37.6238 17.7351C37.8473 17.281 37.9631 16.7834 37.9625 16.2795C38.2597 13.4842 36.8108 8.70143 32.9285 4.96231Z" fill="#fff"/>
<path d="M30.4812 8.74401C29.932 8.89109 29.6575 8.80284 29.4183 8.24393C29.1791 7.68502 28.6299 8.24393 28.3199 8.3714C28.0615 8.50621 27.8297 8.69615 27.6378 8.93032L28.5236 8.72441L28.8956 11.8033L27.0797 11.9896C27.0797 12.1955 27.0266 12.4014 27 12.6172C27.7154 12.8133 28.3682 13.2238 28.8868 13.8036C29.0489 14.0011 29.186 14.2221 29.2943 14.4606C29.5687 14.7497 29.865 15.0121 30.1801 15.245C30.3462 15.0557 30.5537 14.9172 30.7824 14.843H30.8533C31.4203 14.8507 31.9723 15.0453 32.4389 15.4019C32.4901 15.4502 32.5349 15.5063 32.5718 15.5686C32.6442 15.7039 32.7008 15.8489 32.7401 16C32.9037 15.9693 33.064 15.9201 33.2184 15.8529C33.4642 15.7507 33.6791 15.574 33.8385 15.3431C33.9009 15.2392 33.9515 15.1273 33.9891 15.0097C33.9891 15.0097 33.9891 14.9606 33.9891 14.941C33.9891 14.9214 33.9891 14.941 33.9891 14.941C34.0199 14.646 33.9852 14.347 33.888 14.0702C33.7907 13.7934 33.6339 13.547 33.431 13.3526C33.245 13.1761 33.0235 13.029 32.8286 12.8525C32.8062 12.8192 32.7906 12.7809 32.7829 12.7402C32.7753 12.6996 32.7758 12.6576 32.7844 12.6172C32.8427 12.437 32.9264 12.2682 33.0324 12.1171C33.5462 11.0679 32.9881 10.7541 32.2706 10.5384C32.2706 10.5384 32.2706 10.4894 32.2706 10.4698C32.3858 8.99896 31.7302 8.41063 30.4812 8.74401Z" fill="#fff"/>
<path d="M22.1603 6.09467L22.2204 6.16794C22.5609 6.69007 22.2805 7.34046 22 8L24.0634 7.03818L28 3.70383L26.1169 2L22.1603 6.09467Z" fill="#fff"/>
<path d="M18 6.5463C18.1272 6.68806 18.2441 6.83971 18.3498 7C18.4657 6.82518 18.5709 6.64271 18.6647 6.45371C18.9027 5.91931 19.2748 5.46448 19.7405 5.13891L21 2.58334L18.7697 2L18 6.5463Z" fill="#fff"/>
<path d="M25.0512 9.78492C25.048 9.96641 25.0309 10.1468 25 10.3226C25.4168 10.3503 25.8112 10.6075 26.1049 11.043C26.243 11.3196 26.3127 11.6572 26.3024 12H26.5585H26.6829H26.7195L28 11.828L27.7366 9L26.9537 9.23656L26.7634 9.29031H26.7049V9.39784H26.639L25.0512 9.78492Z" fill="#fff"/>
<path d="M24.1689 6.87174L23.7965 7.04665L23.4335 7.22159L22 7.9038H22.1582L22.8471 7.72014L23.0891 7.65891L23.3311 7.58892L26.3285 6.78427L26.617 8L29 7.12536L28.0226 5L24.1689 6.87174Z" fill="#fff"/>
<path d="M21.217 2.75055L20.9665 3.34134L20.7069 3.94311L20 5.59516C20.1084 5.56065 20.2193 5.53868 20.3311 5.52952H20.5548C20.662 5.51936 20.7697 5.51936 20.877 5.52952C21.3021 5.54539 21.7148 5.70856 22.0671 6L24 2.45513L21.9329 1L21.217 2.75055Z" fill="#fff"/>
<path d="M24.1892 11.2624C24.1315 11.3761 24.0643 11.4898 23.997 11.6035L23.8433 11.8397C23.7569 11.9621 23.6608 12.0933 23.5552 12.2245L23.4591 12.3382C23.4326 12.3797 23.4003 12.4179 23.363 12.4519C22.6819 13.237 21.887 13.9343 21 14.5248C21.5378 14.4689 22.0817 14.4866 22.6138 14.5772C24.3625 15.005 26.0373 15.6526 27.5896 16.5015L28.3197 16.8513L28.6367 17C28.8461 16.6329 28.968 16.2296 28.9945 15.8167C29.021 15.4037 28.9514 14.9903 28.7903 14.6035C28.7204 14.4638 28.6334 14.3318 28.531 14.2099C28.4787 14.142 28.4209 14.0777 28.3581 14.0175L28.3005 13.965C27.8006 13.5391 27.1885 13.2378 26.5234 13.0904H26.3409C26.0892 13.0487 25.8296 13.0922 25.6108 13.2128C25.6588 12.863 25.7165 12.5569 25.7453 12.2945C25.75 12.2596 25.75 12.2244 25.7453 12.1895V12.0758C25.7453 11.5073 25.4763 11.1487 24.2852 11C24.2852 11.0525 24.2372 11.1575 24.1892 11.2624Z" fill="#fff"/>
<path d="M31.993 16.1745C32.0023 16.1114 32.0023 16.0454 31.993 15.9823C31.9724 15.8606 31.9403 15.7453 31.8978 15.6408C31.7393 15.1925 30.9846 14.9897 30.8515 15.0004C30.737 15.064 30.6314 15.1656 30.5407 15.2993L30.4519 15.4487L30.3758 15.5981C30.3179 15.7134 30.2709 15.843 30.2363 15.9823C30.1365 16.0693 30.0605 16.2176 30.0239 16.3965C29.9873 16.5753 29.9929 16.771 30.0397 16.943C30.1085 17.153 30.1962 17.3439 30.2997 17.5086C30.4294 17.6896 30.5792 17.8252 30.7403 17.9077C30.9015 17.9902 31.0708 18.0178 31.2383 17.9889C31.6061 17.9889 31.8725 17.7114 31.8725 17.2738C31.8889 17.144 31.8894 17.0099 31.8742 16.8796C31.8589 16.7494 31.8281 16.6256 31.7837 16.516C31.8411 16.4733 31.8929 16.4116 31.9359 16.3346C31.9657 16.2945 31.986 16.2377 31.993 16.1745Z" fill="#fff"/>
<path d="M26.6995 8.4589V8.33561V8.21233L26.4554 7L23.2253 8.0274L23 8.0993H23.1221C23.6773 8.2336 24.1974 8.50412 24.6432 8.89042L24.7465 9.00342L24.8216 9.10616L24.8967 9.21916C25.0202 9.44109 25.0972 9.69025 25.1221 9.94864V10L27 9.6404V9.54794L26.6995 8.4589Z" fill="#fff"/>
<path d="M17.536 7.51224L17.442 7.41325C17.311 7.29124 17.1621 7.18817 17 7.10727C17 7.24226 17 7.37725 17.047 7.52125C17.047 7.89023 17.1317 8.27722 17.1975 8.67321L17.2539 8.99721L17.3103 9.31218C17.3103 9.45617 17.3668 9.60019 17.4044 9.75318C17.4044 9.75318 17.4044 9.75319 17.4044 9.81619V9.91517C17.4088 9.96909 17.4088 10.0232 17.4044 10.0772L17.4608 10.2842V10.3922V10.5092C17.4608 10.6262 17.5266 10.7522 17.5548 10.8781C17.5924 11.0041 17.5924 11.0041 17.63 11.1301C17.6563 11.2009 17.6783 11.273 17.6959 11.3461C17.6959 11.3461 17.6959 11.4091 17.6959 11.4451V11.5441V11.6341V11.7421V11.8321C17.6918 11.874 17.6918 11.9162 17.6959 11.9581V12.0481L17.7523 12.2011V12.3001L17.8088 12.4441C17.8088 12.5071 17.8558 12.5611 17.884 12.6151L17.9686 12.8311L18.0156 12.9391L18.0627 13.0471C18.1849 13.3261 18.3166 13.596 18.4576 13.875L18.6551 14.253C18.7209 14.37 18.7868 14.487 18.862 14.604C18.8928 14.6688 18.9273 14.7319 18.9654 14.793L19.0877 15L19.304 14.955L19.6425 14.892L20.1691 14.802C21.1376 14.2043 22.009 13.4735 22.7552 12.6331L22.8587 12.5161L22.9527 12.3991C23.2303 12.0657 23.4728 11.707 23.6768 11.3281C23.7318 11.2235 23.779 11.1152 23.8179 11.0041C23.8625 10.9015 23.9001 10.7963 23.9307 10.6892C23.9648 10.5745 23.9868 10.457 23.9966 10.3382V10.3382C24.0011 10.3113 24.0011 10.284 23.9966 10.2572V10.1132C23.985 9.89952 23.91 9.69347 23.7803 9.51918L23.7051 9.42918L23.6298 9.35719C23.1634 9.02007 22.6177 8.79757 22.0406 8.70921H21.8995H21.7396C21.4826 8.68589 21.2233 8.71346 20.9779 8.79021V8.79021V8.66423V8.57422C20.9739 8.53833 20.9739 8.50213 20.9779 8.46623L21.0343 8.31323C21.307 7.62025 21.6738 6.95427 21.4293 6.51328L21.3729 6.42328L21.2976 6.3513C20.9758 6.13272 20.592 6.01339 20.1974 6.0093C20.0723 5.9969 19.9463 5.9969 19.8212 6.0093H19.6989H19.5767C19.4005 6.03459 19.2312 6.09268 19.0783 6.1803C19.0001 6.22635 18.9275 6.28069 18.862 6.34229C18.7404 6.44851 18.6301 6.5661 18.5329 6.69329C18.2377 7.2324 17.8779 7.73677 17.4608 8.19622C17.3395 7.99658 17.2011 7.80693 17.047 7.62924C17.1325 7.64535 17.2207 7.64323 17.3052 7.623C17.3897 7.60278 17.4685 7.56495 17.536 7.51224V7.51224Z" fill="#fff"/>
<path d="M19.7242 18.4655L19.781 18.3633C19.781 18.2611 19.8473 18.1496 19.8757 18.0474C19.924 17.8769 19.9588 17.703 19.9798 17.5272C20.0604 16.752 19.8986 15.971 19.5159 15.2882C19.4665 15.1823 19.4096 15.0798 19.3456 14.9817C19.3483 14.9632 19.3483 14.9444 19.3456 14.9259L19.213 14.7123L19.1089 14.5543L18.9385 14.2292L18.7113 13.8204C18.5409 13.4952 18.3895 13.1701 18.2475 12.8449L18.1623 12.6684C18.1664 12.6501 18.1664 12.631 18.1623 12.6127L18.115 12.5012C18.0974 12.468 18.0816 12.4338 18.0676 12.399C18.0676 12.399 18.0676 12.3526 18.0676 12.334C18.0676 12.3154 17.9446 12.0367 17.8878 11.8881C17.831 11.7394 17.8878 11.7952 17.8405 11.758C17.7931 11.7208 17.8404 11.6651 17.7931 11.6186L17.7079 11.3957V11.2935C17.7054 11.2595 17.7054 11.2253 17.7079 11.1913C17.7079 11.1913 17.7079 11.1263 17.7079 11.0891V11.0148V10.9312V10.829C17.7079 10.7825 17.7079 10.7361 17.7079 10.6989C17.6511 10.5131 17.6038 10.3366 17.5564 10.1601V10.0486C17.5609 10.0209 17.5609 9.99269 17.5564 9.96499C17.5532 9.94032 17.5532 9.91535 17.5564 9.89068C17.552 9.83192 17.552 9.77292 17.5564 9.71416V9.64912V9.50978V9.40757C17.5618 9.38308 17.5618 9.35776 17.5564 9.33326C17.5564 9.24965 17.5564 9.17533 17.5564 9.10101C17.3935 8.32172 17.2766 7.53383 17.2062 6.7413C17.2062 6.62053 17.2062 6.49975 17.2062 6.38827C17.2062 6.27679 17.2062 6.15602 17.2062 6.04454C17.0839 4.36066 17.1538 2.66865 17.4145 1C16.7613 1.78966 16.146 2.57003 15.5212 3.35041C9.07479 11.7951 -0.438683 21.0481 0.0156921 24.3368C0.0572419 24.7833 0.228028 25.2088 0.507921 25.5631C0.66307 25.7544 0.869652 25.8992 1.10429 25.9812C2.2213 26.2971 18.0108 22.581 19.7242 18.4655Z" fill="#fff"/>
</svg>
